<svg xmlns="http://www.w3.org/2000/svg" viewBox="0 0 717 1097" fill="currentColor"><path d="M0 333.7c0 183.5.2 333.4.4 333.2.4-.4 1.3-149.9 2.1-344.4.3-67.7.7-130.4 1-139.5s.7-53.4 1.1-98.5c.3-45.1.7-82.6.9-83.3C5.8.4 4.9 0 3 0 0 0 0 0 0 333.7M114.7.7c7.9.2 20.7.2 28.6 0 7.8-.1 1.4-.3-14.3-.3s-22.1.2-14.3.3M188 1.1c30.2.7 123 1.3 388 2.5 75.6.4 137.7.8 137.9 1 .4.3.6 21.3 1.6 143.9.4 46.2.9 84.2 1.1 84.4s.4-52.1.4-116.2V0L437.3.2C283.4.3 171.2.7 188 1.1M307.1 83.7c-4.4.6-12.5 8.6-16.8 16.8-5.9 11.3-18.9 59.2-20.3 74.9-1 10.5.2 43.8 2 57.4.7 4.8.7 8 0 9.2-1.2 2.2-7.6 3.7-19.5 4.5-13.5.9-22.2 2.5-24.8 4.6-5.2 4-6.5 8.8-15.7 60.4-3.3 18.7-6 35.4-6 37.3 0 5.6 2.5 9.6 10.1 16.3 22.1 19.3 33.2 31.9 41 46.4 11.1 20.8 22.4 36.5 32.3 45 9.1 7.7 11.8 13.4 13.6 28.5 1.4 11.4 4.2 21.2 9.5 33.7 4.5 10.4 4.5 10.4 3.4 38.1-2.1 57.9-5.6 72.6-29.6 123.2-16.6 34.9-27.7 60.6-30.3 70.3-5.7 20.8-23 124.3-23 137.4 0 4.8 1.9 8.3 4.6 8.3 3.6 0 6.7-12.4 12.4-49 13.5-86.9 16.7-98.1 46.2-162.9 7.2-15.7 15.3-34.5 18-41.6 12.1-31.7 22.2-76.1 24.7-108 1-13.3.3-20-2.9-27.2-4-9.1-7.5-10.7-10.3-4.7-2.5 5.1-4.8 4.2-7-2.6-1.2-3.5-2.3-11.9-3.2-23-.7-9.6-1.6-18.4-2-19.5-1.7-4.7-16.9-35.4-17.3-35-.3.3-.8 4.5-1.2 9.4-1 11.1-1.4 12-4.7 8.9-3.5-3.3-17.5-22.1-27.2-36.6-10.4-15.5-16.1-22.4-32.9-39.4-15.5-15.7-14.6-11-9.1-48.3 5.9-40.4 9.6-56.7 13.2-58.7 1.6-1 8.8-1.3 27.2-1.3 18.1 0 26.1-.4 29-1.3 2.2-.8 5.6-1.2 7.5-1 3 .3 3.5.7 3.8 3.2.3 2.3-.6 3.8-5 8-9.3 9-24.8 16.3-37.2 17.5-9.9.9-10.1 1.7-4.3 13.8 2.9 6.1 5 11.9 5.4 15.2.9 8.1 2.8 9.6 16.1 13.1 12.9 3.4 26.4 9.6 31.4 14.4 1.9 1.8 4.9 6.4 6.7 10.2s4.8 8.9 6.6 11.4c1.7 2.5 5.5 9.2 8.3 15 5.2 11 14.1 23.8 20.8 30.2 14.8 13.9 40.9 26.8 60.5 29.9 7.5 1.2 20.8.6 23.6-1 1.4-.8 1.4-1-.3-1.9-1.1-.6-4.7-1.4-8.1-1.7-6.1-.7-9.3-1.9-8.2-3 .4-.3 5.8-1.2 12-2 15.6-1.9 20.3-3.1 27.1-6.7 7.7-4.1 12.2-9.3 14.4-16.5 1-3.2 2.7-6.8 3.7-8 1.5-1.7 1.7-2.6.9-3.6-1.6-1.9-2.3-27.9-.8-27.4 2.1.7 3.6 5.6 5.1 16.4.9 5.9 1.8 11.6 2.1 12.5 1.2 3.8 3.6 1.2 4.8-5.1.3-1.9 2.3-5.9 4.3-8.8 3.3-4.9 3.5-5.5 2.3-7.8-1.4-2.7-10.6-11.6-18.1-17.6-3.2-2.6-5.9-6.3-9.4-13-4-7.5-6.9-11.3-14.5-18.9-6.3-6.4-11.6-10.7-15.7-12.8-3.5-1.8-6.7-4.2-7.3-5.2-1.1-2.1-1.3-8-.4-10.4.8-2.1 4.7-2 8.7.1 1.8.9 8.6 3.8 15.2 6.4 7.7 3 12.1 5.2 12.3 6.3.2.9-.1 1.6-.7 1.6s-1.1.9-1.1 1.9c0 1.3 3.1 4.2 9.1 8.7 7.5 5.4 8.9 6.8 7.5 7.6-2.1 1.2-2 3.1.2 5.1 2.8 2.5 4.5 2.1 3.9-.8-.4-2.5-.4-2.5 1.5-.8 2.7 2.4 8.5 14.7 10.3 21.8.9 3.3 2 12.7 2.5 20.9.5 8.1 1.2 15.1 1.5 15.4 3.8 3.8 5.4-29.3 2.1-41.8-4.8-18.3-6.6-22.2-12.9-28.3-6.7-6.4-8.1-10.5-6.5-18.1 2-9.3 9.9-14.8 32.3-22.2 7.4-2.4 14.2-4.4 15-4.4 2.6 0 1.7 5.7-6 36-10.9 43.5-17.1 75.6-22.5 116.5-3.1 24.5-4 29.9-6.5 39.8-2.8 11.1-9.6 30.5-11.1 31.8-1.1.9-2.5.7-6.6-1-2.8-1.2-5.2-2-5.3-1.9-.2.2 1.2 4.1 3.1 8.8 1.8 4.7 3.3 10.1 3.3 12 .1 5.2-2 13.2-9.3 35.6-7.9 24.3-13.7 46.9-17.2 66.9-1.4 8.2-3.9 21.6-5.5 29.6-4.6 23.6-5.3 41.6-4.5 131.9.8 105.9 1.7 131.6 4.8 134.6 1.6 1.7 4.4 1 5.2-1.3 3.6-9.3 4.4-101.8 1.2-140.3-3.5-42.3-2.1-91.2 3.4-126 6.2-38.2 11.8-59.6 33-125 19.7-60.8 20.2-62.6 23-91.5 4-40.3 11.7-83.1 24.5-134.5 2.5-10.2 5.7-23.9 7-30.4 2.4-12 2.4-12 .5-16.4-2.5-5.5-16.9-20.1-22.9-23.2-4-2-5.3-2.1-12.6-1.5-8.1.6-8.3.6-10.4-2.1-1.2-1.5-5.3-9.2-9.2-17-8.3-16.9-12.9-22.7-19.3-24.3-7.3-1.8-18.2-1.3-29.2 1.3-14.5 3.6-19.7 4.1-21.2 2.4-.9-1.2-.7-5.7 1-20.9 3.7-31.8 2.9-36.7-6.5-41.6-4.1-2.1-6.6-2.7-11.7-2.7-9.8 0-16.2 4.3-20.6 13.9-2.4 5.2-6.6 28.4-10.4 58-7.2 55.4-9.6 66.6-14.9 69.4-2.3 1.3-3.4.1-9.4-10.4-7.8-13.6-13.5-26.7-15.1-34.5-2-10.4-3.8-35.1-3.9-56-.1-15.3.2-19 2.5-29.5 5.9-27.2 5.7-32.9-1.1-40.6-4.6-5.2-10.4-6.6-22-5.2M322.4 96c3.9 3.8 2.4 18.3-4.5 44.1-2 7.6-2 7.6-10.3 8.7-9.1 1.2-13.2 2.7-14.1 5.1-1 2.5 2.4 4.1 8.9 4.1 6.2 0 13.1 1.4 14 2.9 1.9 3.1 5.4 46.7 3.9 48.2-.6.6-2.8.3-5.7-.7-6.3-2.2-15.5-1.3-23.9 2.1-10.1 4.3-9.2 6.4-9.1-22 0-29.4 1.1-35.7 10-62.5 8.7-25.7 11.6-30.9 18.5-32.3 4.5-1 10.1.1 12.3 2.3m87 32.1c4.8 2.2 5.2 5.5 2.3 21.7-1.5 8.1-3.8 23.2-5.3 33.7-1.4 10.4-3.1 19.3-3.7 19.7-2.1 1.3-18.3.4-20-1.1-2.4-2-2.2-6.8 1.8-32.7 5.7-36.9 8-42.1 18.7-42.3 2-.1 4.8.4 6.2 1m58.9 61.9c2.4 2.1 5.6 7.7 11 19.2 4.2 9 7.7 17.3 7.7 18.5 0 3.4-2.5 5.1-11.3 7.8-4.5 1.3-9.9 3.4-12.1 4.5-2.1 1.2-4.8 2-6 1.8-1.8-.3-2.1-1.1-2.4-5.5-.4-6.8.7-8.7 6-10.2 5.6-1.7 10.2-5.2 11.8-9 1-2.6 1-3.5-.4-5.6-2.1-3.1-3.7-3.1-8.4 0-5.1 3.3-12.9 5-23.7 5-15.3-.1-24.4-4.1-26-11.7-1.1-5 .4-5.4 10.9-2.8 10.4 2.5 14.6 2.2 20.7-1.2 2-1.1 4.3-3.3 5.3-4.9 5.7-9.6 10.7-11.4 16.9-5.9m-25.3 2c0 .5-1.8 1.5-4 2.1-3.2 1-4.3 1-5.3 0-.9-.9-.9-1.4.3-2.1 2-1.3 9-1.3 9 0m-38.9 24.3c4.9 3.3 5.7 7.6 5.8 31.8.1 21.8-.4 26.8-2.5 27.6-.7.3-4.2-1.7-7.8-4.3-7.9-5.8-13.6-8.3-19.7-8.3-2.8-.1-4.9-.6-5.1-1.4-.9-2.4 3.7-38.5 5.8-46 .5-1.5 1.9-1.7 10.3-1.7 8.5 0 10.2.3 13.2 2.3m-70.6 27.9c5.1 10.6 9.6 20.5 10 21.9.6 2.4.3 2.8-3 3.9-2.1.7-5.5.9-8.4.5-6-.8-7.6 0-15.8 7.6-8.8 8.2-16.3 9.3-17.1 2.6-.4-3.4.4-4.7 5.8-9.2 9.2-7.6 11.2-14.5 6.1-21.8-4.3-6.3-6.1-7.6-13.7-9.7-4.9-1.3-7.5-2.7-9.2-4.7-2.5-3.1-3.8-7-2.7-8.1.8-.8 14.1-1.8 28.3-2l10.3-.2zm99.1-10c1.7 1.2 3.7 3 4.3 4 1.4 2.2 4.1 16 4.1 20.9 0 6.5-10.7 21.5-14.8 20.7-4.3-.8-6.6-14.2-6-34.8.2-7.5.8-14.1 1.2-14.8.8-1.4 6 .5 11.2 4m86.3 2.9c4.3 2.6 13.7 12.1 15.4 15.7 2.1 4.1.5 8.4-4 10.9-5.6 3.1-17.5 7.1-23.2 7.9-7.6 1-9.7.1-12.4-5.4-2.3-4.6-8-9.6-10.1-8.9-.7.2-1.2 3.9-1.3 8.9-.1 5.9-.7 9.8-1.9 12.3-2.2 4.7-10.7 10.5-16.5 11.2-4.3.6-4.3.6-2-2.5 1.2-1.8 3.2-3.8 4.4-4.7 3.7-2.6 7.7-9.5 7.7-13.4-.1-4.6-1.9-7-7.8-10.1-2.6-1.4-4.7-3.2-4.7-4s2.6-2.8 5.8-4.4c6.6-3.3 42.2-15.6 45.2-15.6 1.1 0 3.5.9 5.4 2.1M463 266.5c1.1 1.3 1 2.2-.3 5-1.8 3.9-12.4 12.7-14.7 12.3-4.2-.8-.2-11.1 6.2-16.2 3.7-2.9 7-3.3 8.8-1.1m-72.6 11.8c1.7 1.3 5.9 3.8 9.3 5.6 3.3 1.8 7.1 4.2 8.3 5.3 2 1.9 2 2.2.6 3.6s-2 1.5-4.9.3c-1.7-.8-8-3.1-13.9-5.2-16.1-5.7-18.5-7.2-15.5-9.7 3.5-2.9 12.2-2.8 16.1.1m-43.5 3.3c4.6 1.8 6.4 5.2 5.9 11.5-.3 4.3-.3 4.3-9.3 8.9-4.9 2.6-11.7 6.3-15 8.4-6.2 3.8-23.9 12.6-25.5 12.6-1.5 0-5-6.6-5-9.5 0-3.9 5.5-13.7 11-19.4 11.3-11.8 26.8-17 37.9-12.5m-61.6 9.2c3.5 3.7 3.4 6.9-.5 12.8s-7.6 6.9-11.4 3.3c-1.9-1.8-2.4-3.3-2.4-7.2 0-4.4.4-5.3 3.6-8.3 4.3-4.1 7.2-4.3 10.7-.6m109.3 11.3c11.6 3 24.9 9.3 37 17.5 15.7 10.5 20.7 16.6 24.7 30.2 2.3 7.7-.2 13.1-6.3 13.2-4.2 0-35.6-25.1-60-48-9-8.4-8.7-8.4-24-.7-9.9 4.9-10.5 5.4-10.8 8.5-.3 2.9 0 3.4 3.3 4.7 2.6 1.2 5.3 1.4 10.1.9 6.5-.7 6.5-.7 13.4 6.3 6.7 6.6 7 7.2 7 11.6 0 3.1-1.8 9.6-5.5 19.8-5.5 15.1-5.5 15.1-3.6 17.8 2.8 3.9 11.8 12.1 13.3 12.1 2.1 0 3.8-3.5 9.9-19.5 7.5-20.1 6.4-20.1 25.6-1.2 14.8 14.5 14.8 14.5 21.3 10.6 3.6-2.1 7.6-3.9 8.9-3.9 2.3 0 2.4.1 1.9 7.5-1 14.8-8.6 21.7-26 23.5-9.1.9-25.3.1-32.5-1.6-15.7-3.8-41.4-27.3-50.4-46.1-8.2-17.1-7-38 3-52.9 7.6-11.4 12.1-13.8 24.5-12.8 4.3.3 11.1 1.4 15.2 2.5M334 341.8c0 13 .1 14 2.9 19.7 3.8 8 13.5 22.5 20.4 30.6 6.7 7.8 17.2 16.7 27.6 23.3 8.5 5.5 8.9 7.3.4 2.6-11.8-6.7-23-14.6-28.8-20.4-8.1-8.2-26.3-33.8-27.1-38.2-.4-2-.4-8.6-.1-14.7.5-11.1 2.1-18.2 3.8-17.1.5.3.9 6.7.9 14.2M716.4 257.5c0 5.5.1 7.6.3 4.7s.2-7.4 0-10-.3-.2-.3 5.3M716.3 294.5c0 3.3.2 4.5.4 2.7s.2-4.5 0-6-.4 0-.4 3.3M716.4 337c0 5.2.1 7.4.3 4.7.2-2.6.2-6.8 0-9.5-.2-2.6-.3-.4-.3 4.8"/><path d="M316.4 454.4c-.7 1.8 2.3 16.7 3.5 17.9.5.5 1.4.6 2 .3 1.4-.9 1.4-15.1.1-17.7-1.2-2.2-4.8-2.5-5.6-.5M343.6 470.5c-2.2.7-4.9 2.3-6 3.5-2.1 2.2-2.1 2.2 10.6 1.5 13.1-.7 16.8-.3 16.8 1.9 0 1.9-5.5 11.9-11.5 21.1-5.2 8-5.2 8-5.9 81.5-.3 40.4-1 75.9-1.6 78.9-.5 3-2.1 7.1-3.5 9.2s-2.5 4.8-2.5 5.9-2.1 7.6-4.6 14.5c-4.5 12.1-5.1 16.1-1.9 14.9 3.6-1.4 15.4-22.2 19.5-34.4 3.6-10.7 4.2-22.1 4.4-80 .1-55.5.1-55.5 2.8-65.5 1.6-5.7 3.1-14.9 3.6-21.2.9-12 2.2-14.9 6.5-15.5 1.2-.2 2.6-1.3 3.2-2.4 2-4.1 3.7-5.4 7-5.4 2.9 0 3.5.5 5.3 4.7 1.1 2.7 3.9 10.9 6.2 18.3 2.6 8.6 5.8 16.2 8.6 21 2.6 4.4 4.4 8.7 4.4 10.5 0 1.7-1.6 9.4-3.5 17.2-4 16.1-4 16.6-2.1 18.2 2.3 2 5.3-2.3 8.2-11.8 3.7-12 11-30.7 14.4-36.6 1.5-2.8 4.9-8.6 7.4-13 4.5-7.8 5.8-12.5 3.4-12.5s-3.9 1.6-12.1 12.5c-4.5 6-8.7 11-9.2 11.2-2.6.8-20.9-34.4-20.2-39 .5-3.7-.7-4.4-9.8-6.2-4.3-.8-8.8-2.1-10.1-3-3.1-2-22.2-2-27.8 0M459 490.6c-1.3 3.4.5 7.1 2.6 5.3 2-1.6 1.9-7.9-.1-7.9-.9 0-2 1.2-2.5 2.6"/><path d="M372.6 500.2c-.3 1.3-.8 8.1-1.1 15.3-.7 15.4-2.1 24.2-4.7 30.9-1.5 3.8-1.7 6.2-1.2 10.4.6 4.8 1.3 6.2 5.9 11.2 4.8 5.2 5.4 6.5 7.3 14.6 2.8 12 3.7 17.5 6.9 41.4 3.8 28.9 3.8 54.7-.1 73.3-3.7 17.3-3 22.3 2 14.9 2.5-3.7 5.4-12.3 7.9-23.5 1.7-7.8 3-9.2 5.5-6.2 3.3 4 6.1.4 8.6-11 .9-4.4 2.8-11.1 4.1-14.9 1.5-4.6 2.3-9.2 2.3-13.8 0-3.8.7-8.4 1.5-10.5 3-7.2 1-11.9-3.1-6.8-3.2 4-10.9 19.1-12.9 25.2-2.5 7.8-3.5 7.4-3.5-1.4 0-4.3-.7-9.9-1.4-12.5-1.4-4.4-6.7-36.6-10-59.8-.8-5.8-2.7-14.6-4.2-19.5-2.3-7.5-2.8-10.9-2.8-20.5-.1-14.5.3-16 5.5-18.4s7-5.8 4.4-8.6c-2.4-2.7-4-2.5-6.4.7-1.8 2.5-2.1 2.6-3.5 1.3-.8-.8-2.1-4.2-2.8-7.4-1.4-6.2-3.4-8.3-4.2-4.4"/><path d="M429.7 532.1c-.9 1.3-2.4 5.3-3.2 8.8-.9 3.5-2.7 9.1-4 12.5-1.3 3.3-3.2 10.8-4.4 16.6-1.7 8.2-3.4 12.9-7.7 21.5-5.5 10.8-6.5 15.3-3.6 16.3 2.4.8 10.2-9 14.7-18.3 4.7-9.8 6.5-16 6.5-22.7.1-2.4.8-6.1 1.6-8.3 2.1-5.7 4.4-17 4.4-21.4 0-2-.6-4.6-1.4-5.6-1.3-1.8-1.4-1.7-2.9.6M156.1 874.6c-2.5 1.8-2.5 2.7-.2 14.9.6 2.7 1 11.7 1.1 20 .1 8.2.5 17.2 1 20 .5 2.7 1.4 18.3 2 34.5 1.3 38.4 2.5 52.6 4.5 55.6 3.6 5.6 13.9 7.7 24.3 5 8-2 10.7-3.8 14-9.5 2.4-4.2 2.7-5.5 2.6-14.1 0-10.2-1.7-15.2-6.6-19.6-4.7-4.3-14.5-7.4-23.4-7.4-3.7 0-4.4-1.2-4.4-7.8 0-2.6-.7-9.2-1.5-14.6-1.1-7-1.5-18.1-1.5-37.2 0-16.2-.5-29.4-1.1-32.5-1.8-8.1-5.7-10.8-10.8-7.3m35.4 113.7c2.1 1.8 2.8 3.5 3.5 9 1.5 12.7-1.4 16.5-13.5 17.4-8.7.7-9.7-.4-10.2-10.3-.7-15.4 1.1-18.4 11.1-18.4 5.3 0 7 .4 9.1 2.3M468.3 957c-6.1 1.3-11.9 4.5-15 8.6-1.5 2-4.3 5.1-6 7-1.8 1.8-3.3 3.6-3.3 3.9 0 .4.9 2.7 1.9 5.3 1.6 3.7 2.1 7.7 2.3 18.9.3 12.3.6 14.4 2.3 16.3 1.3 1.4 2.8 2 4.9 1.8 2.8-.3 3.1-.6 2.9-3.3-.1-1.7-.4-11-.7-20.8-.5-15.4-.4-18.3 1.1-21.4 2.2-4.7 6.3-7 13.9-7.9 8.2-.8 12.6 0 15.8 3.2 5.9 6 9.6 24.7 7.4 37.1-.9 4.7-.8 6.9 0 8.8 1.5 3.3 5.7 4.3 8.4 1.9 1.9-1.8 2-2.6 1.4-10.9-.4-5-.8-13.1-.9-18-.2-10.4-2.2-15.2-8.9-22.2-6.7-6.9-17.7-10.2-27.5-8.3M272.5 965.9c-3.7 2.3-9.1 8.1-13.6 14.5-3.1 4.4-3.4 5.5-3.3 11.6.1 9.6 3.6 16.7 10.7 21.2 5 3.2 5.4 3.3 15.7 3.2 8.8 0 11.2-.4 14.8-2.2 8.1-4.3 14.1-16.5 12.8-26.1-.9-6.8-5-14.4-9.4-17.4-9.3-6.4-21.7-8.6-27.7-4.8m19.4 8.1c4.7 2.4 8.5 6.8 10.1 11.6 2 6-.2 13.9-5.2 18.6-3.4 3.3-4.5 3.8-8.6 3.8-5.9-.1-12.8-2.6-18.8-6.8-4.7-3.3-4.7-3.3-4.1-8.7.7-7.3 7.4-17.2 13.2-19.6 3.5-1.4 9.5-1 13.4 1.1M378.3 969c-5.7 1.2-9.6 3.4-11 6.2-.7 1.2-1.7 7.2-2.3 13.3-1.3 12.7-2.6 23.4-3.6 28.6-.5 3-.2 4.1 1.5 5.8 2.7 2.7 4.6 2.7 7.6-.4 2.4-2.4 2.5-2.8 2.5-18.2 0-16.3 1-22.9 3.8-25.1 2.4-1.8 8.8-1.5 13.9.9 5.6 2.5 9.3 1.5 9.3-2.5 0-6.1-11.5-10.6-21.7-8.6M527 1007.8c-2.5 2.6-3 3.8-3 8 0 4.4.4 5.4 3 7.6 4.3 3.6 11.3 4.5 14.8 1.9 2.8-2.1 4-7.1 2.8-11.9-.8-3.1-6.2-7.1-10.8-7.9-3.3-.6-4.1-.3-6.8 2.3m10.8 6.4c3.1 3.1.3 7.6-3.9 6.3-1.9-.6-2.7-5.4-1.2-6.8 1-1.1 3.8-.8 5.1.5M572.3 1096.7c26.9.2 70.5.2 97 0 26.5-.1 4.6-.2-48.8-.2-53.3 0-75 .1-48.2.2"/></svg>