<svg xmlns="http://www.w3.org/2000/svg" viewBox="0 0 650 750" preserveAspectRatio="xMidYMid meet">
<g transform="translate(0,750) scale(0.1,-0.1)" fill="currentColor" stroke="none">
<path d="M2701 7363 c-44 -6 -125 -86 -168 -168 -59 -113 -189 -592 -203 -749
-10 -105 2 -438 20 -574 7 -48 7 -80 0 -92 -12 -22 -76 -37 -195 -45 -135 -9
-222 -25 -248 -46 -52 -40 -65 -88 -157 -604 -33 -187 -60 -354 -60 -373 0
-56 25 -96 101 -163 221 -193 332 -319 410 -464 111 -208 224 -365 323 -450
91 -77 118 -134 136 -285 14 -114 42 -212 95 -337 45 -104 45 -104 34 -381
-21 -579 -56 -726 -296 -1232 -166 -349 -277 -606 -303 -703 -33 -119 -130
-634 -130 -687 0 -7 19 -10 57 -8 56 3 56 3 79 136 82 480 139 656 396 1221
72 157 153 345 180 416 121 317 222 761 247 1080 10 133 3 200 -29 272 -40 91
-75 107 -103 47 -25 -51 -48 -42 -70 26 -12 35 -23 119 -32 230 -7 96 -16 184
-20 195 -17 47 -169 354 -173 350 -3 -3 -8 -45 -12 -94 -10 -111 -14 -120 -47
-89 -35 33 -175 221 -272 366 -104 155 -161 224 -329 394 -155 157 -146 110
-91 483 59 404 96 567 132 587 16 10 88 13 272 13 181 0 261 4 290 13 22 8 56
12 75 10 30 -3 35 -7 38 -32 3 -23 -6 -38 -50 -80 -93 -90 -248 -163 -372
-175 -99 -9 -101 -17 -43 -138 29 -61 50 -119 54 -152 9 -81 28 -96 161 -131
129 -34 264 -96 314 -144 19 -18 49 -64 67 -102 18 -38 48 -89 66 -114 17 -25
55 -92 83 -150 52 -110 141 -238 208 -302 148 -139 409 -268 605 -299 75 -12
208 -6 236 10 14 8 14 10 -3 19 -11 6 -47 14 -81 17 -61 7 -93 19 -82 30 4 3
58 12 120 20 156 19 203 31 271 67 77 41 122 93 144 165 10 32 27 68 37 80 15
17 17 26 9 36 -16 19 -23 279 -8 274 21 -7 36 -56 51 -164 9 -59 18 -116 21
-125 12 -38 36 -12 48 51 3 19 23 59 43 88 33 49 35 55 23 78 -14 27 -106 116
-181 176 -32 26 -59 63 -94 130 -40 75 -69 113 -145 189 -63 64 -116 107 -157
128 -35 18 -67 42 -73 52 -11 21 -13 80 -4 104 8 21 47 20 87 -1 18 -9 86 -38
152 -64 77 -30 121 -52 123 -63 2 -9 -1 -16 -7 -16 -6 0 -11 -9 -11 -19 0 -13
31 -42 91 -87 75 -54 89 -68 75 -76 -21 -12 -20 -31 2 -51 28 -25 45 -21 39 8
-4 25 -4 25 15 8 27 -24 85 -147 103 -218 9 -33 20 -127 25 -209 5 -81 12
-151 15 -154 38 -38 54 293 21 418 -48 183 -66 222 -129 283 -67 64 -81 105
-65 181 20 93 99 148 323 222 74 24 142 44 150 44 26 0 17 -57 -60 -360 -109
-435 -171 -756 -225 -1165 -31 -245 -40 -299 -65 -398 -28 -111 -96 -305 -111
-318 -11 -9 -25 -7 -66 10 -28 12 -52 20 -53 19 -2 -2 12 -41 31 -88 18 -47
33 -101 33 -120 1 -52 -20 -132 -93 -356 -79 -243 -137 -469 -172 -669 -14
-82 -39 -216 -55 -296 -42 -214 -51 -419 -47 -1119 l3 -605 69 -3 c68 -3 68
-3 61 135 -3 76 -13 232 -22 348 -31 426 -16 919 37 1255 62 382 118 596 330
1250 197 608 202 626 230 915 40 403 117 831 245 1345 25 102 57 239 70 304
24 120 24 120 5 164 -25 55 -169 201 -229 232 -40 20 -53 21 -126 15 -81 -6
-83 -6 -104 21 -12 15 -53 92 -92 170 -83 169 -129 227 -193 243 -73 18 -182
13 -292 -13 -145 -36 -197 -41 -212 -24 -9 12 -7 57 10 209 37 318 29 367 -65
416 -41 21 -66 27 -117 27 -98 0 -162 -43 -206 -139 -24 -52 -66 -284 -104
-580 -72 -554 -96 -666 -149 -694 -23 -13 -34 -1 -94 104 -78 136 -135 267
-151 345 -20 104 -38 351 -39 560 -1 153 2 190 25 295 59 272 57 329 -11 406
-46 52 -104 66 -220 52z m153 -123 c39 -38 24 -183 -45 -441 -20 -76 -20 -76
-103 -87 -91 -12 -132 -27 -141 -51 -10 -25 24 -41 89 -41 62 0 131 -14 140
-29 19 -31 54 -467 39 -482 -6 -6 -28 -3 -57 7 -63 22 -155 13 -239 -21 -101
-43 -92 -64 -91 220 0 294 11 357 100 625 87 257 116 309 185 323 45 10 101
-1 123 -23z m870 -321 c48 -22 52 -55 23 -217 -15 -81 -38 -232 -53 -337 -14
-104 -31 -193 -37 -197 -21 -13 -183 -4 -200 11 -24 20 -22 68 18 327 57 369
80 421 187 423 20 1 48 -4 62 -10z m589 -619 c24 -21 56 -77 110 -192 42 -90
77 -173 77 -185 0 -34 -25 -51 -113 -78 -45 -13 -99 -34 -121 -45 -21 -12 -48
-20 -60 -18 -18 3 -21 11 -24 55 -4 68 7 87 60 102 56 17 102 52 118 90 10 26
10 35 -4 56 -21 31 -37 31 -84 0 -51 -33 -129 -50 -237 -50 -153 1 -244 41
-260 117 -11 50 4 54 109 28 104 -25 146 -22 207 12 20 11 43 33 53 49 57 96
107 114 169 59z m-253 -20 c0 -5 -18 -15 -40 -21 -32 -10 -43 -10 -53 0 -9 9
-9 14 3 21 20 13 90 13 90 0z m-389 -243 c49 -33 57 -76 58 -318 1 -218 -4
-268 -25 -276 -7 -3 -42 17 -78 43 -79 58 -136 83 -197 83 -28 1 -49 6 -51 14
-9 24 37 385 58 460 5 15 19 17 103 17 85 0 102 -3 132 -23z m-706 -279 c51
-106 96 -205 100 -219 6 -24 3 -28 -30 -39 -21 -7 -55 -9 -84 -5 -60 8 -76 0
-158 -76 -88 -82 -163 -93 -171 -26 -4 34 4 47 58 92 92 76 112 145 61 218
-43 63 -61 76 -137 97 -49 13 -75 27 -92 47 -25 31 -38 70 -27 81 8 8 141 18
283 20 l103 2 94 -192z m991 100 c17 -12 37 -30 43 -40 14 -22 41 -160 41
-209 0 -65 -107 -215 -148 -207 -43 8 -66 142 -60 348 2 75 8 141 12 148 8 14
60 -5 112 -40z m863 -29 c43 -26 137 -121 154 -157 21 -41 5 -84 -40 -109 -56
-31 -175 -71 -232 -79 -76 -10 -97 -1 -124 54 -23 46 -80 96 -101 89 -7 -2
-12 -39 -13 -89 -1 -59 -7 -98 -19 -123 -22 -47 -107 -105 -165 -112 -43 -6
-43 -6 -20 25 12 18 32 38 44 47 37 26 77 95 77 134 -1 46 -19 70 -78 101 -26
14 -47 32 -47 40 0 8 26 28 58 44 66 33 422 156 452 156 11 0 35 -9 54 -21z
m-559 -294 c11 -13 10 -22 -3 -50 -18 -39 -124 -127 -147 -123 -42 8 -2 111
62 162 37 29 70 33 88 11z m-726 -118 c17 -13 59 -38 93 -56 33 -18 71 -42 83
-53 20 -19 20 -22 6 -36 -14 -14 -20 -15 -49 -3 -17 8 -80 31 -139 52 -161 57
-185 72 -155 97 35 29 122 28 161 -1z m-435 -33 c46 -18 64 -52 59 -115 -3
-43 -3 -43 -93 -89 -49 -26 -117 -63 -150 -84 -62 -38 -239 -126 -255 -126
-15 0 -50 66 -50 95 0 39 55 137 110 194 113 118 268 170 379 125z m-616 -92
c35 -37 34 -69 -5 -128 -39 -59 -76 -69 -114 -33 -19 18 -24 33 -24 72 0 44 4
53 36 83 43 41 72 43 107 6z m1093 -113 c116 -30 249 -93 370 -175 157 -105
207 -166 247 -302 23 -77 -2 -131 -63 -132 -42 0 -356 251 -600 480 -90 84
-87 84 -240 7 -99 -49 -105 -54 -108 -85 -3 -29 0 -34 33 -47 26 -12 53 -14
101 -9 65 7 65 7 134 -63 67 -66 70 -72 70 -116 0 -31 -18 -96 -55 -198 -55
-151 -55 -151 -36 -178 28 -39 118 -121 133 -121 21 0 38 35 99 195 75 201 64
201 256 12 148 -145 148 -145 213 -106 36 21 76 39 89 39 23 0 24 -1 19 -75
-10 -148 -86 -217 -260 -235 -91 -9 -253 -1 -325 16 -157 38 -414 273 -504
461 -82 171 -70 380 30 529 76 114 121 138 245 128 43 -3 111 -14 152 -25z
m-606 -397 c0 -130 1 -140 29 -197 38 -80 135 -225 204 -306 67 -78 172 -167
276 -233 85 -55 89 -73 4 -26 -118 67 -230 146 -288 204 -81 82 -263 338 -271
382 -4 20 -4 86 -1 147 5 111 21 182 38 171 5 -3 9 -67 9 -142z"/>
<path d="M2794 3656 c-7 -18 23 -167 35 -179 5 -5 14 -6 20 -3 14 9 14 151 1
177 -12 22 -48 25 -56 5z"/>
<path d="M3066 3495 c-22 -7 -49 -23 -60 -35 -21 -22 -21 -22 106 -15 131 7
168 3 168 -19 0 -19 -55 -119 -115 -211 -52 -80 -52 -80 -59 -815 -3 -404 -10
-759 -16 -789 -5 -30 -21 -71 -35 -92 -14 -21 -25 -48 -25 -59 0 -11 -21 -76
-46 -145 -45 -121 -51 -161 -19 -149 36 14 154 222 195 344 36 107 42 221 44
800 1 555 1 555 28 655 16 57 31 149 36 212 9 120 22 149 65 155 12 2 26 13
32 24 20 41 37 54 70 54 29 0 35 -5 53 -47 11 -27 39 -109 62 -183 26 -86 58
-162 86 -210 26 -44 44 -87 44 -105 0 -17 -16 -94 -35 -172 -40 -161 -40 -166
-21 -182 23 -20 53 23 82 118 37 120 110 307 144 366 15 28 49 86 74 130 45
78 58 125 34 125 -24 0 -39 -16 -121 -125 -45 -60 -87 -110 -92 -112 -26 -8
-209 344 -202 390 5 37 -7 44 -98 62 -43 8 -88 21 -101 30 -31 20 -222 20
-278 0z"/>
<path d="M4220 3294 c-13 -34 5 -71 26 -53 20 16 19 79 -1 79 -9 0 -20 -12
-25 -26z"/>
<path d="M3356 3198 c-3 -13 -8 -81 -11 -153 -7 -154 -21 -242 -47 -309 -15
-38 -17 -62 -12 -104 6 -48 13 -62 59 -112 48 -52 54 -65 73 -146 28 -120 37
-175 69 -414 38 -289 38 -547 -1 -733 -37 -173 -30 -223 20 -149 25 37 54 123
79 235 17 78 30 92 55 62 33 -40 61 -4 86 110 9 44 28 111 41 149 15 46 23 92
23 138 0 38 7 84 15 105 30 72 10 119 -31 68 -32 -40 -109 -191 -129 -252 -25
-78 -35 -74 -35 14 0 43 -7 99 -14 125 -14 44 -67 366 -100 598 -8 58 -27 146
-42 195 -23 75 -28 109 -28 205 -1 145 3 160 55 184 52 24 70 58 44 86 -24 27
-40 25 -64 -7 -18 -25 -21 -26 -35 -13 -8 8 -21 42 -28 74 -14 62 -34 83 -42
44z"/>
<path d="M3927 2879 c-9 -13 -24 -53 -32 -88 -9 -35 -27 -91 -40 -125 -13 -33
-32 -108 -44 -166 -17 -82 -34 -129 -77 -215 -55 -108 -65 -153 -36 -163 24
-8 102 90 147 183 47 98 65 160 65 227 1 24 8 61 16 83 21 57 44 170 44 214 0
20 -6 46 -14 56 -13 18 -14 17 -29 -6z"/>
</g>
</svg>